PathFileType	3	(X/Y/Z)	D:\minhoCalibration\240510\subject2_KPNP\preferred\preferred18.trc
DataRate	CameraRate	NumFrames	NumMarkers	Units	OrigDataRate	OrigDataStartFrame	OrigNumFrames
200.0	200.0	18	10	mm	200.0	260	174	
Frame#	Time	Left_Ankle_Outer1			Left_Ankle_Inner1			Left_Knee_Outer1			Left_Knee_Inner1			Left_Wrist1			Right_Wrist1			Right_Knee_Inner1			Right_Knee_Outer1			Right_Ankle_Inner1			Right_Ankle_Outer1			
		X1	Y1	Z1	X2	Y2	Z2	X3	Y3	Z3	X4	Y4	Z4	X5	Y5	Z5	X6	Y6	Z6	X7	Y7	Z7	X8	Y8	Z8	X9	Y9	Z9	X10	Y10	Z10	
260	1.29	-642.0816	89.4608	-715.97064	-667.39764	91.619011	-661.97284	-464.63889	510.15765	-628.2558	-550.00983	491.02182	-575.36041	-563.05078	929.13989	-766.99921	-896.43066	964.90375	-823.13123	-963.17163	456.86914	-840.41113	-1019.786	508.73096	-898.89191	-895.11505	127.20866	-1068.3911	-967.0271	156.16023	-1134.0564
261	1.295	-641.23682	89.390518	-716.77325	-666.86261	91.458626	-663.25061	-462.87927	509.91071	-625.50232	-548.84424	490.54074	-575.56714	-557.68304	930.4718	-765.86224	-892.75659	965.93378	-815.59857	-969.64087	462.78235	-812.74878	-1026.3751	511.43182	-886.06	-896.12909	133.43843	-1062.5863	-967.73755	163.54262	-1128.5054
262	1.3	-640.20642	89.734406	-717.60663	-666.72821	91.526482	-663.45245	-461.04428	509.17752	-623.69171	-547.70007	490.22989	-573.75122	-552.53979	932.39594	-763.229	-888.80133	967.10352	-808.12158	-978.39484	463.2244	-795.46948	-1031.2872	515.26318	-873.99512	-898.12695	140.41969	-1055.9198	-968.87219	171.16411	-1121.9113
263	1.305	-640.13147	89.607162	-717.61859	-666.58661	91.452354	-663.44934	-459.13831	507.85135	-622.92871	-546.38214	489.12048	-573.76221	-547.49719	934.31018	-761.18146	-884.62115	968.5517	-800.75244	-981.19183	469.00949	-790.23236	-1035.2316	519.88995	-862.32495	-900.18439	148.02266	-1048.4928	-970.51294	179.60515	-1114.5464
264	1.31	-639.97253	89.562843	-717.63348	-666.44305	91.374092	-663.46661	-456.72656	506.33939	-622.78986	-544.92004	487.84387	-574.62549	-542.52399	936.32001	-759.34595	-880.27039	970.13013	-793.43982	-988.65704	476.94852	-764.66724	-1039.9703	524.30823	-848.93011	-902.74622	155.14522	-1040.2917	-972.42065	188.59111	-1106.2018
265	1.315	-639.67218	89.563217	-717.74603	-666.17224	91.448029	-663.56671	-454.65753	504.74942	-623.44586	-542.98645	486.52686	-574.75403	-537.24908	939.03882	-756.11249	-875.59174	971.87427	-786.09192	-992.62518	482.41583	-751.76044	-1043.6472	529.53033	-835.09082	-905.95807	163.08923	-1031.2693	-974.64972	198.17984	-1097.1254
266	1.32	-639.1922	89.558678	-717.98328	-665.80933	91.558586	-663.95441	-452.29712	503.42059	-624.11792	-540.51801	485.19031	-575.10651	-532.32892	941.15295	-754.91113	-870.62708	973.69714	-778.72827	-995.08063	479.7691	-757.95526	-1047.1243	535.25958	-820.21906	-909.13092	171.64381	-1022.1032	-976.74292	208.36493	-1087.5575
267	1.325	-638.65283	89.644814	-718.38818	-665.96857	91.410187	-665.30878	-450.06995	502.20001	-625.14758	-537.67346	484.31818	-574.43323	-527.23438	943.54401	-752.86554	-865.72162	975.72198	-771.57208	-1001.1877	490.97531	-720.91669	-1049.5585	541.37817	-804.79333	-913.04285	180.66861	-1011.4958	-978.9411	219.27356	-1077.2841
268	1.33	-638.1001	89.673622	-718.78137	-665.03851	92.145149	-664.75409	-447.90771	501.28705	-626.21979	-534.48767	483.24738	-575.7204	-521.97864	946.07233	-750.71039	-860.61517	977.91882	-764.20111	-1002.0651	496.41724	-710.82013	-1051.3757	550.12549	-793.33899	-915.43042	189.74681	-1001.6397	-981.22498	231.0367	-1066.9235
269	1.335	-637.60577	89.785973	-719.14001	-665.07294	91.243675	-666.83508	-445.67133	500.47253	-627.64886	-531.31506	482.68613	-576.37024	-516.93689	948.42694	-749.40729	-855.71173	980.42322	-756.90356	-1005.3799	505.51404	-684.22986	-1053.0889	554.05292	-771.15674	-917.91101	199.75546	-991.073	-983.41644	242.42625	-1055.1455
270	1.34	-637.10431	90.016167	-719.46826	-665.94	89.592056	-671.98773	-443.59079	499.83609	-629.25562	-528.18701	482.33206	-577.55426	-511.81854	951.05365	-748.11163	-850.67194	983.28125	-749.31207	-1003.3604	510.65445	-674.62286	-1052.6912	561.54083	-755.36823	-920.45331	210.26944	-980.13293	-985.38159	255.00267	-1043.6332
271	1.345	-636.68848	90.163918	-719.72125	-663.88586	93.367172	-666.64136	-441.7088	499.27399	-631.41229	-525.18628	482.35342	-579.0564	-506.65897	953.73706	-747.17853	-845.77063	986.63861	-741.76654	-1003.1931	516.25928	-656.90173	-1052.3961	568.48694	-737.22137	-922.36444	221.72583	-969.25629	-987.27618	268.01651	-1031.498
272	1.35	-636.255	90.386948	-720.09064	-663.45477	93.532455	-666.38104	-439.95554	498.78549	-634.14862	-522.24683	482.54144	-580.76135	-501.5632	956.47046	-746.46149	-841.00171	990.38611	-734.19	-1001.7943	521.24774	-644.4613	-1051.818	575.87415	-720.30609	-923.94208	234.28827	-958.57709	-989.26819	281.94455	-1019.436
273	1.355	-635.91412	90.59935	-720.43091	-663.17023	94.288986	-667.1001	-438.35034	498.36182	-637.29559	-519.474	483.46469	-581.42944	-496.40225	959.3089	-746.20892	-835.94928	994.53619	-726.14996	-996.6969	525.89575	-629.71875	-1049.7151	583.03992	-698.3642	-925.22571	248.58199	-948.18494	-991.19855	296.88806	-1006.8816
274	1.36	-635.52368	90.890915	-720.76935	-662.69623	94.882774	-667.42987	-436.93823	498.13654	-641.03778	-516.55341	483.57404	-584.64313	-491.0957	962.24768	-746.72504	-830.40521	998.9444	-717.33301	-992.45795	530.60559	-615.52734	-1047.3719	589.66797	-677.98907	-924.36877	263.74997	-938.54852	-992.90845	312.50342	-994.23816
275	1.365	-635.15735	91.293495	-721.1651	-662.22314	95.353722	-668.00757	-435.96454	497.84891	-645.12433	-513.99335	484.20795	-586.7146	-485.93073	965.51849	-747.44257	-824.94025	1003.759	-708.62286	-992.98627	545.85071	-567.73853	-1044.2711	598.01221	-659.9386	-923.11438	280.21198	-928.22882	-994.22992	328.8623	-981.26501
276	1.37	-634.76001	91.796379	-721.64441	-660.55872	93.687233	-674.34485	-435.29004	497.83142	-649.49158	-511.64203	485.138	-588.11151	-480.85089	968.19781	-749.17224	-819.32495	1008.7753	-699.69214	-982.74011	544.87262	-578.45917	-1041.4402	604.16583	-635.39703	-921.2276	297.26401	-917.56201	-994.52625	345.59491	-967.77423
277	1.375	-634.2002	92.335266	-722.28546	-659.56915	93.971741	-676.47614	-434.90433	498.0105	-653.93524	-509.4064	485.85312	-590.75336	-476.24356	970.7345	-751.49329	-813.4361	1014.0309	-690.5354	-976.83374	552.09595	-559.39569	-1036.6067	612.76184	-612.69452	-918.52307	314.77188	-906.29932	-993.87592	363.24197	-953.79968
